<?xml version="1.0" encoding="UTF-8"?>
<svg width="10px" height="14px" viewBox="0 0 10 14" version="1.1" xmlns="http://www.w3.org/2000/svg" xmlns:xlink="http://www.w3.org/1999/xlink">
    <title>marker</title>
    <g id="Page-1" stroke="none" stroke-width="1" fill="none" fill-rule="evenodd">
        <path d="M5.00001318,0.249993408 C7.48127342,0.249993408 9.5,2.26874636 9.5,4.75000659 C9.5,5.49488037 9.31379474,6.23342601 8.96113326,6.88630458 L8.96113326,6.88630458 L5.24609838,13.6049869 C5.19665986,13.69453 5.10244981,13.7500066 5.00001318,13.7500066 C4.89755019,13.7500066 4.80334014,13.69453 4.75390162,13.6049869 L4.75390162,13.6049869 L1.0402642,6.88849306 C0.68620526,6.23342601 0.5,5.49488037 0.5,4.75000659 C0.5,2.26874636 2.51872658,0.249993408 5.00001318,0.249993408 Z M5.00001318,2.49998682 C3.75938307,2.49998682 2.74999341,3.50937647 2.74999341,4.75000659 C2.74999341,5.99063671 3.75938307,7 5.00001318,7 C6.2406433,7 7.25000659,5.99063671 7.25000659,4.75000659 C7.25000659,3.50937647 6.2406433,2.49998682 5.00001318,2.49998682 Z" id="marker" fill="#0A0B09"></path>
    </g>
</svg>