<svg width="11" height="12" xmlns="http://www.w3.org/2000/svg"><path d="M6.68175228 2.40022619c-.19790804 0-.35811931-.15592754-.35811931-.3485439 0-.19261636.16021127-.34783834.35811931-.34783834.19790803 0 .3581193.15522198.3581193.34783834 0 .19261636-.16021127.3485439-.3581193.3485439zm-2.86350456 0c-.19790803 0-.3581193-.15592754-.3581193-.3485439 0-.19261636.16021127-.34783834.3581193-.34783834.19790804 0 .35811931.15522198.35811931.34783834 0 .19261636-.16021127.3485439-.35811931.3485439zm4.77226595 1.39347003v5.10962531c0 .40569381-.33782104.73589329-.75538525.73589329h-.54587821c.01884838.06138324.02972245.12558869.02972245.19332192v1.47108106c0 .3845271-.32114747.6963822-.71696355.6963822-.39509113 0-.71551367-.3118551-.71551367-.6963822V9.83253674c0-.06773323.01014913-.13193868.02827258-.19332192H4.58523198c.01812345.06138324.02899751.12558869.02899751.19332192v1.47108106c0 .3845271-.32114747.6963822-.7162386.6963822-.39509114 0-.71623861-.3118551-.71623861-.6963822V9.83253674c0-.06773323.01014913-.13193868.02899751-.19332192h-.54515327c-.41756421 0-.75611019-.33019948-.75611019-.73589329V3.79369622h6.68102734zm-7.87427506 0c.39509113 0 .71551367.31185507.71551367.69638224V7.471046c0 .38452718-.32042254.69638224-.71551367.69638224C.32042254 8.16742824 0 7.85557318 0 7.471046V4.49007846c0-.38452717.32042254-.69638224.7162386-.69638224zm9.06824772 0c.39509117 0 .71551367.31185507.71551367.69638224V7.471046c0 .38452718-.3204225.69638224-.71551367.69638224-.39581607 0-.71623861-.31185506-.71623861-.69638224V4.49007846c0-.38452717.32042254-.69638224.71623861-.69638224zM3.07591135.01968548c.05509528-.03527772.12903894-.02116663.16601077.0324555l.31897266.46566594.13411351.19543858.13556338.19896636C4.26190969.74922878 4.74326843.65821226 5.25.65821226c.5074565 0 .98809031.09101652 1.41942833.2539996L6.80571665.7132455 7.25952775.052141c.03552196-.05362214.11019056-.06843879.1645609-.0324555.05509528.03527771.07031897.10724427.03334714.1608664l-.29722452.43462154-.13338857.19332192-.13338857.19614414c1.01201326.45931595 1.69707954 1.32926458 1.69707954 2.3248019H1.90948633c0-.99553732.68506628-1.86548595 1.69780447-2.3248019L3.4731773.80849535 3.33978873.61517344 3.04256421.1805519c-.03624689-.05362214-.0210232-.1255887.03334714-.16086642z" fill="#000" fill-rule="evenodd"/></svg>