<svg width="11" height="12" xmlns="http://www.w3.org/2000/svg"><path d="M8.11007018 2.80894047c.81498365 0 1.67836133.44663635 2.29275522 1.21713697C8.38851124 5.13667083 8.71464497 8.0302817 10.75 8.80431026c-.2798438.6237386-.4145055.90244533-.77500597 1.45491964-.50287717.7712062-1.21195503 1.7315097-2.09146406 1.7385655-.78061687.0084671-.98190801-.5115503-2.0416673-.5052-1.05975928.0056447-1.28068859.5150783-2.06270818.5073168-.87880767-.0077614-1.55071329-.8742219-2.05359047-1.6454281-1.4069339-2.15486161-1.55492147-4.68438976-.6873356-6.0299435.61719932-.95536433 1.59069097-1.51418896 2.50526815-1.51418896.93070852 0 1.51634651.51366708 2.2871443.51366708.74765281 0 1.20283731-.51507825 2.27942931-.51507825zM7.87441226 0c.10730851.72887101-.18936798 1.44292471-.58072846 1.94812475-.41871363.54189055-1.14041601.96100902-1.83967479.93913583-.12764804-.6978252.19918705-1.416818.5968598-1.90014485C6.48711651.45369222 7.23476932.04445196 7.87441226 0z" fill="#000" fill-rule="evenodd"/></svg>