<svg width="13" height="12" xmlns="http://www.w3.org/2000/svg"><path d="M10.4729285 10.682105C9.44856744 11.5426491 8.13296021 12 6.75902273 12c-2.37445894 0-4.41517175-1.3579091-5.39237604-3.34227273l2.02214102-1.54390909c.46593362 1.41436364 1.79409026 2.43163637 3.37023502 2.43163637.77182205 0 1.45378938-.18354546 1.99537577-.52472728l.1664161-.11308981c.53865764-.39435421.91447245-.96185234 1.06096123-1.68036473h-3.2227531V4.90909091h5.59885077c.0819344.35454545.1365573.73636364.1365573 1.09090909 0 1.95572727-.7174723 3.48081818-1.8205824 4.5046364zM6.75902273 0c1.52944215 0 2.89501549.57272727 3.96016267 1.5L8.97125155 3.24545455c-.60085227-.4909091-1.36557335-.7909091-2.21222882-.7909091-1.57614476 0-2.9043014 1.01727273-3.37023502 2.43163637l-.06310916.21299782C3.24995806 5.38673455 3.20853202 5.68821818 3.20853202 6c0 .38781818.06390884.76009091.17834388 1.10890909L1.36582735 8.65609091C.97226911 7.85645455.7505 6.95536364.7505 6c0-.95618182.22204223-1.85781818.61614669-2.658l.10873677-.21015173C2.49004188 1.26264761 4.4693659 0 6.75902273 0z" fill="#000" fill-rule="evenodd"/></svg>