<svg width="13" height="12" xmlns="http://www.w3.org/2000/svg"><path d="M8.91956608 0C10.890733 0 12.4944308 1.603676 12.4944308 3.57486471v4.85027058C12.4944308 10.396324 10.8907548 12 8.91956608 12H4.06929549c-1.97118871 0-3.5748647-1.603676-3.5748647-3.57486471V3.57486471C.49443078 1.603676 2.09810677 0 4.06929548 0zm0 1.20719956H4.06929549c-1.30761441 0-2.36766515 1.06002896-2.36766515 2.36766515v4.85027058c0 1.30761441 1.06005074 2.36766511 2.36766515 2.36766511h4.85027059c1.30761442 0 2.36766512-1.0600507 2.36766512-2.36766511V3.57486471c0-1.30763619-1.0600507-2.36766515-2.36766512-2.36766515zM6.49443079 2.896373c1.71134267 0 3.10362699 1.39226255 3.10362699 3.10360522 0 1.71134268-1.39228432 3.103627-3.10362699 3.103627-1.71134268 0-3.103627-1.3923061-3.103627-3.103627 0-1.7113209 1.39228432-3.10360522 3.103627-3.10360522zm0 1.20719956c-1.04735461 0-1.89642745.84905105-1.89642745 1.89642744 0 1.04737639.84905106 1.89642744 1.89642745 1.89642744 1.0473546 0 1.89642744-.84907283 1.89642744-1.89642744 0-1.04737639-.84905106-1.89642744-1.89642744-1.89642744zM9.6040683 2.17598188c.4107302 0 .7436928.33296259.7436928.74369277 0 .41073017-.3329626.74369276-.7436928.74369276-.41073017 0-.74369276-.33296259-.74369276-.74369276 0-.41073018.33296259-.74369277.74369276-.74369277z" fill="#000" fill-rule="nonzero"/></svg>