<svg width="13" height="12" xmlns="http://www.w3.org/2000/svg"><path d="M2.74997501 3.72400912c.22756961 0 .41377358.18620398.41377358.41377359v7.26179079c0 .2068751-.18618053.3930791-.41375015.3930791H1.09488067c-.2275696 0-.41377358-.186204-.41377358-.4137736V4.13778271c0-.22756961.16550943-.41377359.39307904-.41377359h1.67578888zm7.05491576-.20689851c1.53097403 0 2.66886893 1.19995511 2.66886893 2.73092909h.0206711v5.3377144c0 .0827547-.1241438.2069219-.2068985.2069219h-2.0688914c-.0827547 0-.2068985-.1241672-.2068985-.2069219V7.13764705c0-.39307905-.10344924-.74479245-.35171339-.9930566-.26895869-.26895869-.6206721-.41377359-1.01375114-.41377359-.76548699.02067111-1.34477001.66203774-1.34477001 1.42752473v4.46882501c0 .0827547-.12414379.1655094-.20689851.1655094H4.81884292c-.08275471 0-.20689851-.0827547-.20689851-.1655094V3.9102131c0-.10344926.1241438-.18620398.20689851-.18620398h2.06889136c.08275472 0 .20689851.1241438.20689851.20689851v.82754717l.04914367-.04914367.15775484-.15775484c.43446812-.64136663 1.24134419-1.03444568 2.06889135-1.03444568zM1.94312238 0c.78618153 0 1.44821926.66203773 1.44821926 1.44821926 0 .82754717-.70342681 1.4689138-1.44821926 1.44821926-.76548699.02069454-1.44821926-.62067209-1.44821926-1.44821926C.47420858.6413432 1.13626975 0 1.94312238 0z" fill="#000" fill-rule="evenodd"/></svg>