<svg width="13" height="7" xmlns="http://www.w3.org/2000/svg"><path d="M3.87872498 0C5.74779221 0 7.2631341 1.52556981 7.2631341 3.40750814S5.74790713 6.8151312 3.87872498 6.8151312c-1.86918215 0-3.3842942-1.52522505-3.3842942-3.40762306C.49443079 1.52511013 2.00965776 0 3.87872498 0zm5.40494158.19984677c.93453364 0 1.69220454 1.43650642 1.69220454 3.20766137 0 1.77161463-.7576709 3.20766137-1.69220454 3.20766137-.93453361 0-1.69220455-1.43650642-1.69220455-3.20766137S8.34913295.19984677 9.28366656.19984677zm2.61570584.33372917c.3287876 0 .5950584 1.28676499.5950584 2.8739322 0 1.58728213-.2665007 2.8739322-.5951734 2.8739322-.3286726 0-.5951733-1.28710975-.5951733-2.8739322s.2665007-2.8739322.5952883-2.8739322z" fill="#000" fill-rule="nonzero"/></svg>