<svg width="11" height="12" xmlns="http://www.w3.org/2000/svg"><path d="M5.53248191 0C2.24299062.0005.49443079 2.10806572.49443079 4.40607204c0 1.06557992.59547848 2.39507041 1.54896282 2.8165773.2720982.1224395.23609761-.02696919.47010144-.92201507.0184378-.07459497.00893764-.13903353-.05100084-.20850341-1.36308478-1.57655703-.26600435-4.81757877 2.87551577-4.81757877 4.54657433 0 3.69709169 6.29113411.79104418 6.29113411-.7490435 0-1.30705262-.58804087-1.13051848-1.31558401.2140035-.86648292.63294785-1.79799815.63294785-2.42253961 0-1.57399448-2.3450071-1.34045942-2.3450071.74501218 0 .64454179.22803498 1.0794864.22803498 1.0794864s-.75454358 3.04801859-.89454587 3.61762165c-.23694138.96401579.03196927 2.52444749.05553216 2.65898099.01453148.0739699.09740784.0975328.1439086.0365006.07459497-.0974079.98660988-1.3984604 1.24211406-2.33903826.09300152-.34253685.4744765-1.73243458.4744765-1.73243458.25147287.45397617.97645347.83398239 1.74905985.83398239 2.29800632 0 3.95903349-2.02003303 3.95903349-4.52654276C10.2360588 1.79799815 8.17961894 0 5.53248191 0z" fill="#000" fill-rule="evenodd"/></svg>