<svg width="13" height="12" xmlns="http://www.w3.org/2000/svg"><path d="M12.0088593 8.40114214c-1.6043249-.26401232-2.32735866-1.90733903-2.35661003-1.97709228-.0022501-.00450021-.00375017-.00900042-.00675031-.01350063-.08175382-.16650778-.10125473-.30376418-.05625263-.40801905.0877541-.20550959.42376977-.31201456.64578017-.38251785.064503-.02025095.1252558-.03975186.1755082-.05925277.2190102-.08625403.3750175-.1800084.4785223-.28576334.1230057-.12675592.1470069-.24826159.1455068-.32701526-.0037502-.19200897-.150757-.36301695-.385518-.44627083-.0787537-.03225151-.1695079-.04950231-.2610122-.04950231-.0622529 0-.1552572.00825038-.2430113.04950231-.18750878.08775409-.35551662.13575633-.50027338.14250665-.07650357-.00375018-.13050609-.02025095-.16575773-.03600168.00450021-.0750035.00900042-.15225711.01425066-.23176082l.00225011-.03450161c.05175241-.81228792.11550539-1.82258507-.15300714-2.42261308-.18375858-.41101919-.4305201-.76428568-.73428428-1.05079905-.25426187-.2400112-.54977566-.4350203-.87829099-.57902703C7.1591329.03750175 6.62660805 0 6.35959558 0H6.32959418c-.07425346.00075004-.1950091.0022501-.20625962.0022501-.26626243 0-.79953732.03750176-1.37181404.28951352-.3277653.14400672-.62177902.33826579-.87529085.578277-.30226411.28651336-.54827559.63902982-.73128414 1.04854893-.26851253.59927798-.20475955 1.60957513-.15375717 2.42111301v.00150007c.00525024.08700407.01125052.1777583.01650077.26626243-.03900182.01725081-.1027548.03675172-.19650918.03675172-.15150707 0-.33151547-.04800224-.53477496-.14325669-.0600028-.02775129-.12825598-.04200196-.20325949-.04200196-.12075563 0-.24901162.03525165-.35926677.10050469-.13950651.08175382-.22951071.19650917-.25426186.32476516-.01575074.08400392-.0150007.25126173.17100798.42076964.10275479.09300434.2527618.17925837.44702086.25576194.05100238.02025095.11175522.03900182.1755082.05925277.22201036.07050329.55877608.17700826.64653017.38251785.04425207.10425487.02475116.24151127-.05700266.40801905-.0022501.00450021-.00450021.00900042-.00600028.01350063-.02100098.04800224-.2122599.47927237-.60452821.93454362-.2227604.25876208-.46802185.47552219-.72903403.64353004-.31876488.20550959-.66303095.33901582-1.0237978.39826859-.1417566.02325108-.24301133.14925696-.23476095.29251365.0022501.04125192.01200056.08250385.02925137.12225571v.00075003c.0577527.13425627.19050889.24751155.40651897.34726621.26401232.12225571.65853074.2250105 1.17380479.30526425.02625123.04950231.05325249.17325809.07200336.25801204.01950091.0900042.03975186.18300854.06900322.2812631.03150147.106505.11250525.234011.32176502.234011.07950371 0 .17025795-.0180009.27601289-.0382518.15450721-.0300014.36601708-.0712534.62927937-.0712534.14625683 0 .2977639.0127506.450021.0382518.29401373.0487523.54752556.2272606.84078925.4342703.42902003.3030141.91504271.6457801 1.65757737.6457801.02025095 0 .04050189-.00075.06075284-.0022501.02400112.0015001.05475255.0022501.08625402.0022501.74253466 0 1.22855735-.342766 1.65757737-.6450301l.00075004-.00075c.29326369-.2062596.54677552-.384768.84078924-.4335202.15225711-.0255012.30376418-.0382518.45002101-.0382518.25201176 0 .45152108.0322515.62927937.0667531.11625545.022501.20625965.0337516.27601285.0337516H10.1855242c.1530071 0 .2655124-.084004.3082644-.2302608.0285013-.0967545.0487522-.1867587.0690032-.279013.0172508-.07950371.0457521-.20700967.0712533-.25651198.5152741-.08100378.9097925-.18300854 1.1738048-.30526424.21526-.09975466.3480162-.21300995.4057689-.34651618.0172508-.03975185.0277513-.08100378.0300014-.12375578.0082504-.14175661-.0930043-.26851253-.2347609-.29101358z" fill="#000" fill-rule="nonzero"/></svg>