<svg width="13" height="6" xmlns="http://www.w3.org/2000/svg"><path d="M3.99408247 1.27686831v4.72278156h-.74998198V1.69047676c.21522798-.18973016.46872329-.33410797.74998198-.41360845zM2.49407732 2.799735v3.19987368H1.7924547l-.04835936-.00523138V2.80463684s.04835936-.00486065.04835936-.00490184h.70162262zm2.25002832-1.58247145c.27186692.03563104.52573296.12785984.74998198.26774773v4.51463859h-.74998198zM7.98599511 0c1.28284115 0 2.32273209 1.07436865 2.32273209 2.40000824 0 .13688087-.0135109.26927183-.0348895.39976795h.421888c.8546095 0 1.5483645.71587504 1.5483645 1.59931896 0 .88426776-.693755 1.60051353-1.5483645 1.60051353H6.24411079V.82198552C6.66974729.32026747 7.29001579 0 7.98599511 0zM.99407217 3.03527061v2.72925556c-.4477154-.28088796-.74998198-.78450084-.74998198-1.36538983 0-.57973561.30226659-1.08338968.74998198-1.36386573z" fill="#000" fill-rule="nonzero"/></svg>