<svg width="13" height="12" xmlns="http://www.w3.org/2000/svg"><path d="M6.24409019 0c-3.31371302 0-6 2.68628698-6 6s2.68628698 6 6 6 6.00000001-2.68628698 6.00000001-6-2.68628699-6-6.00000001-6zm2.61128207 8.70764079c-.07629568.13053605-.21359423.2033242-.35462479.20335226-.07031885 0-.14153564-.01809883-.2066353-.0561204-1.07821312-.63011981-2.32380533-.73138907-3.17908018-.70537727-.94739649.02881783-1.642167.21583905-1.64906981.21774714-.21839252.05965599-.4440807-.06885972-.50398922-.28722419-.05988047-.2183364.06818628-.44388428.28646656-.50401728.03131518-.00861448.77895111-.21168614 1.81860953-.2459757.61238577-.02020335 1.20193054.02247622 1.75202267.12683209.69673473.13216354 1.33229822.36416526 1.88906868.68955132.19566376.11431725.26154911.36562439.14723186.56123203zm.76278844-1.58425074c-.09035384.15463975-.25299075.24084068-.42006117.24086874-.08328267 0-.16765969-.02140993-.24476911-.06647461-1.27713188-.74640128-2.7526213-.86630251-3.76567864-.83552047-1.12223958.03414926-1.94521714.25568453-1.95338266.25792934-.25863085.0705714-.52601648-.08154293-.59698072-.34020184-.07093618-.25865891.08078531-.525792.33933198-.59703685.03709558-.01021391.92267545-.25077399 2.15418144-.2913771.72544031-.02390729 1.42374641.02662913 2.07533228.15023431.82530655.1565759 1.57813362.43136943 2.23763246.81677625.23177724.13541852.30984072.43308111.17439414.66480223zm.468914-1.44047029c-.10216721 0-.20565322-.02626435-.30024415-.08154294-3.0363099-1.77447083-6.97497966-.71954767-7.01440423-.70866031-.31744503.08746364-.64560905-.09896832-.73304463-.41638529-.08746364-.31741696.09896832-.64560904.41638529-.73304462.04548558-.01254291 1.13175198-.3075959 2.64231665-.35740275.88987307-.02929485 1.74638257.03266207 2.5456212.18427132 1.01232778.192044 1.93578891.52910311 2.74470827 1.00186133.2842499.16611637.3800193.53120762.2139029.81545743-.1108377.18968694-.3103177.29544583-.5152413.29544583z" fill="#000" fill-rule="nonzero"/></svg>