<svg width="13" height="10" xmlns="http://www.w3.org/2000/svg"><path d="M12.0532382 1.16119059c-.2666213.11822851-.5433947.21150059-.8273948.2790263.3129355-.29737059.5482222-.66931788.6809623-1.08447811.0378881-.11852108-.0908437-.2210092-.1978667-.15755024-.3950898.2343505-.8206656.41015725-1.2649368.52259282-.0257756.00652436-.0523705.00983043-.0790531.00983043-.0809255 0-.1595982-.03004718-.2214773-.08458268C9.67079187.22943528 9.06285569 0 8.43168925 0c-.27311633 0-.54886581.04256928-.81961231.12653756-.83886358.26018464-1.4861215.95214761-1.689196 1.80587387-.07618585.32022049-.09681221.64073355-.06135243.95261573.00406675.03584012-.01287319.06085506-.02331802.07258721-.01834429.02056784-.04435398.03235851-.07135841.03235851-.0030135 0-.00611476-.00014629-.00918677-.00043886C3.92142242 2.81893506 2.26557968 1.9342839 1.0951438.49857262 1.03545903.42534175.9210047.43432372.87343244.51592217c-.22920122.3932173-.3503262.84295959-.3503262 1.30060134 0 .70135455.28177648 1.36230485.77122085 1.84414234-.20582468-.04880108-.40503723-.12565985-.59008927-.22844053-.08952716-.04973731-.19968066.01418976-.20093872.1165901-.01281468 1.04190882.59719877 1.96901224 1.5110194 2.38648379-.0184028.00043886-.03680561.00064366-.05523767.00064366-.14485259 0-.29151913-.01398496-.43587436-.04157454-.10082044-.01925126-.18552015.07639066-.15421491.17413909.2966099.9260209 1.0939282 1.60859231 2.04806531 1.76356791-.79187646.53157479-1.7140354.81197617-2.67381915.81197617l-.2992138-.00017554c-.09218956 0-.1701601.06009437-.19365366.14938747-.02314248.08794726.01948532.18072197.09809952.22645103 1.08152313.629411 2.31515465.96206582 3.56806668.96206582 1.09670764 0 2.12258349-.21764461 3.04916028-.64684832.84942544-.39348061 1.60004919-.95595105 2.23101082-1.67178794.58777795-.66683101 1.04740914-1.43661824 1.36607904-2.28794541.3037779-.81150806.4643417-1.67740533.4643417-2.5040979v-.03938024c-.0000293-.1327401.0600066-.25763925.1647475-.34266079.3974596-.32270736.7435727-.70258336 1.0286845-1.12906614.0752789-.11261112-.043447-.25374805-.1673221-.19880295z" fill="#000" fill-rule="evenodd"/></svg>