<svg width="13" height="11" xmlns="http://www.w3.org/2000/svg"><path d="M10.492432.00269825C8.82840023-.0577069 7.70438977.89624423 7.11152573 2.8497081c.30493186-.13649748.60142638-.1975276.88838982-.1975276.60948873 0 .879015.34852481.80701633 1.04101201-.03603058.41955474-.30396313 1.02951221-.80601635 1.83199738-.50452192.80245391-.88145245 1.20444648-1.13244781 1.20444648-.76095468 0-1.21847747-3.64190142-1.37350586-4.63638303C5.27952835.71068515 4.70507022.06422835 3.77149373.15478918 2.91457207.23622518 1.41913097 1.7792904.24409019 2.82514606l.56442707.73608015c.53761506-.38096171.85107801-.57202068.94054511-.57202068.9355452 0 1.38853683 3.18344115 2.1149609 5.55092863.48752223 1.30650709 1.07201143 1.95993254 1.77646715 1.95993254 1.13191658 0 2.51092233-1.07201146 4.14492337-3.2169718 1.57750211-2.05343079 2.39448701-3.67193212 2.44698601-4.85234779l.0064686-.00499991C12.3058672.84327646 11.7283779.03322893 10.492432.00269825z" fill="#000" fill-rule="evenodd"/></svg>