<svg width="13" height="12" xmlns="http://www.w3.org/2000/svg"><path d="M6.24559019 0c3.30825 0 5.99850001 2.69175 5.99850001 6s-2.69025001 6-5.99850001 6c-1.22025 0-2.352-.363-3.30075-.9915l-2.30625.73725.74775-2.229C.66709019 8.529.24409019 7.3125.24409019 6c0-3.309 2.69025-6 5.9985-6zm-2.2605 2.74425c-.2295 0-.46875.0675-.6135.21525-.17625.18-.6135.59925-.6135 1.46025 0 .861.62775 1.6935.7125 1.80975l.01561877.02181725C3.65093459 6.487392 4.76512019 8.16672 6.45784019 8.868c1.3785.5715 1.788.51825 2.1015.4515.45825-.099 1.03275-.438 1.1775-.84675.14475-.4095.14475-.75825.10275-.8325-.04275-.07425-.159-.11625-.33525-.20475-.17625-.08775-1.0335-.5115-1.1955-.56775-.159-.06-.3105-.039-.4305.1305-.16875.23625-.3345.47625-.46875.621-.10575.1125-.27825.12675-.423.06675-.19425-.081-.73725-.2715-1.407-.86775-.519-.462-.8715-1.03725-.9735-1.20975-.102-.17625-.0105-.27825.0705-.3735.0885-.1095.1725-.1875.261-.2895.0885-.102.138-.15525.19425-.27525.06-.11625.01725-.23625-.0255-.32475-.042-.0885-.3945-.9495-.53925-1.29825-.11625-.27825-.20475-.28875-.381-.29625-.06-.003-.12675-.00675-.201-.00675z" fill="#000" fill-rule="nonzero"/></svg>