<svg width="13" height="9" xmlns="http://www.w3.org/2000/svg"><path d="M6.29156535-.0010684c.01572244.00003807.035132.00009519.0579852.00018086l.29208255.00179917c.99176575.00822474 3.546313.04934848 4.2976416.25496716.5139529.13843866.9193068.54369873 1.0576517 1.0578392.2235801.81657999.2453012 2.40320845.2471638 2.80321886l.0000916.10410554c-.0004469.15663787-.0107267 1.97750225-.2471617 2.87582993-.1384386.5140467-.5436987.91940053-1.0577454 1.05776887-.8139393.21424161-3.74408565.24280715-4.51098797.24661589l-.36908492-.00002322c-.76509076-.00395971-3.68900987-.03365747-4.51144084-.25639073-.51414046-.1384621-.91940053-.54381594-1.0578392-1.0578392C.26427996 6.2385196.24465892 4.53298639.24295274 4.24278768v-.08467393c.00170618-.28884565.0213272-1.98698677.24696904-2.84439576.1383449-.5140467.55359055-.92929236 1.05774543-1.06763726C1.89202615.15543145 2.61517363.09802025 3.39303423.06165982l.42776583-.01781854C4.60784311.0147328 5.39067649.00445921 5.84522479.00083324l.29207543-.00173058c.02285263-.0000824.04226171-.00013734.05798376-.00017397zM5.04733373 2.40111545v3.59846756l3.12387095-1.79923378-3.12387095-1.79923378z" fill="#000" fill-rule="evenodd"/></svg>