<?xml version="1.0" encoding="UTF-8"?>
<svg width="247px" height="68px" viewBox="0 0 247 68" version="1.1" xmlns="http://www.w3.org/2000/svg" xmlns:xlink="http://www.w3.org/1999/xlink">
    <title>LOGO</title>
    <defs>
        <polygon id="path-1" points="0 68 247 68 247 0 0 0"></polygon>
    </defs>
    <g id="Components" stroke="none" stroke-width="1" fill="none" fill-rule="evenodd">
        <g id="1.0-FLC-Accueil" transform="translate(-25.000000, -29.000000)">
            <g id="LOGO" transform="translate(25.000000, 29.000000)">
                <path d="M69.1109135,10.197878 L63.0044188,16.1254198 C64.0837062,18.1625702 64.6963844,20.4806372 64.6963844,22.940173 C64.6963844,26.062591 63.5542062,29.7791779 62.2233555,31.5192439 C61.04466,33.0612536 58.3464414,34.9973549 58.3464414,34.9973549 C55.9667343,36.6424347 53.0798433,37.6104853 49.9697913,37.6104853 C41.8487619,37.6104853 35.2431982,31.0301661 35.2431982,22.940173 C35.2431982,14.8522008 41.8487619,8.26986061 49.9697913,8.26986061 C52.6091766,8.26986061 55.0842342,8.96912058 57.228608,10.1837311 L63.3269877,4.26225221 C59.5596254,1.58040836 54.9462802,0 49.9697913,0 C44.9486702,0 40.296779,1.6107231 36.5071006,4.33904954 C32.6098991,1.52382085 27.9377206,0 23.02818,0 C14.3472195,0 6.77192007,4.80993848 2.84834505,11.8955033 L9.15771336,18.0190805 C11.1925354,12.3441614 16.639691,8.26986061 23.02818,8.26986061 C25.7750882,8.26986061 28.4063586,9.01762416 30.6907151,10.4080602 C28.3211517,14.013493 26.9416113,18.3202069 26.9416113,22.940173 C26.9416113,34.7608999 35.9613706,44.5202247 47.5048773,45.7510031 L36.7769224,56.3894552 L10.9348859,31.3050198 L10.9125698,31.2706631 L0.10143679,20.7777216 C0.0344885085,21.4891075 0,22.2105983 0,22.940173 C0,27.4267542 1.30041964,31.7759087 3.76330489,35.5127054 L4.56668427,36.6707284 L36.8398132,68 L63.7428786,41.3169673 C69.4699997,35.5026005 73,30.4501441 73,22.940173 C73,18.2292626 71.5656838,13.8457515 69.1109135,10.197878" id="Fill-1" fill="#59F389"></path>
                <path d="M36.553363,4.35648256 C40.3382372,1.6171945 44.9842312,0 49.9989869,0 C54.9691671,0 59.5746377,1.58675797 63.3392503,4.27937667 L57.2486015,10.2246463 C55.1069462,9.00515584 52.6350262,8.30308645 49.9989869,8.30308645 C41.8882527,8.30308645 35.2910629,14.9118725 35.2910629,23.0323398 C35.2910629,31.1548361 41.8882527,37.7615931 49.9989869,37.7615931 C53.1050962,37.7615931 55.9863014,36.7896531 58.3650178,35.1379639 C58.3650178,35.1379639 60.3729463,33.8555712 62.0485839,31.4652888 C63.7201691,29.0750063 64.706911,26.1673028 64.706911,23.0323398 C64.706911,20.5629223 64.0950095,18.235542 63.0170903,16.1902069 L69.1158437,10.23885 C71.5675021,13.9013796 73,18.3025024 73,23.0323398 C73,30.5724838 69.5453905,36.1099038 63.7525878,41.4829666 C58.5635819,46.8905242 47.5371977,45.934817 47.5371977,45.934817 C36.0083249,44.6990937 27,34.9005589 27,23.0323398 C27,18.3917829 28.3777915,14.0697951 30.744351,10.4498766 C30.744351,10.4498766 33.550588,6.19890741 36.553363,4.35648256" id="Fill-3" fill="#8300FF"></path>
                <polygon id="Fill-5" fill="#59F389" points="97.0352782 25.462509 90.5244233 25.462509 90.5244233 33 86 33 86 13 98 13 98 16.6508429 90.5244233 16.6508429 90.5244233 21.8137346 97.0352782 21.8137346"></polygon>
                <path d="M106.053348,18.6492394 C105.203294,19.7190491 104.779277,21.1676237 104.779277,22.9989926 C104.779277,24.8303616 105.203294,26.2789362 106.053348,27.3487458 C106.903401,28.4185555 108.052285,28.9524529 109.5,28.9524529 C110.947715,28.9524529 112.096599,28.4185555 112.946652,27.3487458 C113.796706,26.2789362 114.220723,24.8303616 114.220723,22.9989926 C114.220723,21.1676237 113.796706,19.7190491 112.946652,18.6492394 C112.096599,17.5814445 110.947715,17.0455324 109.5,17.0455324 C108.052285,17.0455324 106.903401,17.5814445 106.053348,18.6492394 M119,22.9989926 C119,25.9868037 118.135813,28.3984084 116.407439,30.2378362 C114.679065,32.0792787 112.377258,33 109.5,33 C106.60255,33 104.296706,32.0833081 102.578427,30.2539539 C100.85813,28.4225849 100,26.004936 100,22.9989926 C100,20.0131963 100.864187,17.5995769 102.592561,15.7601491 C104.320935,13.9207213 106.622742,13 109.5,13 C112.39745,13 114.703294,13.9146771 116.421573,15.7460461 C118.139851,17.5754004 119,19.9930493 119,22.9989926" id="Fill-7" fill="#59F389"></path>
                <path d="M126.617361,33 L122,33 L122,13 L127.066765,13 L131.774007,21.2788581 C132.434526,22.4455937 133.009345,23.5378568 133.498463,24.5577162 C133.987581,25.5775755 134.303209,26.2933388 134.443256,26.7091436 L134.681544,27.3607778 C134.482971,25.8982209 134.382639,23.8709144 134.382639,21.2788581 L134.382639,13 L139,13 L139,33 L133.933235,33 L129.104758,24.7211419 C128.465142,23.6516343 127.900775,22.598676 127.411656,21.5601986 C126.922538,20.5217211 126.586008,19.7563095 126.406246,19.2598262 L126.167958,18.5192387 C126.466863,20.2983037 126.617361,22.3669839 126.617361,24.7211419 L126.617361,33 Z" id="Fill-9" fill="#59F389"></path>
                <path d="M149.676155,16.7687455 L147.646243,16.7687455 L147.646243,29.2602131 L149.706911,29.2602131 C151.529731,29.2602131 152.936316,28.6872479 153.926667,27.5392491 C154.917018,26.3933189 155.411169,24.7716413 155.411169,22.6721481 C155.411169,20.8932671 154.912918,19.463957 153.912315,18.3862861 C152.911711,17.3086152 151.501025,16.7687455 149.676155,16.7687455 M149.764323,33 L143,33 L143,13 L149.823785,13 C152.803039,13 155.245085,13.9246044 157.147871,15.7758817 C159.048607,17.6250905 160,19.9231565 160,22.6721481 C160,25.8782708 159.06501,28.3997311 157.19093,30.240666 C155.3189,32.0795325 152.841997,33 149.764323,33" id="Fill-11" fill="#59F389"></path>
                <path d="M168.258173,24.513083 L168.050444,25.2246354 L172.830266,25.2246354 L172.624594,24.513083 C172.052825,22.5749302 171.585949,20.9222257 171.22191,19.557038 C170.859926,18.1918502 170.6378,17.3127521 170.559645,16.917675 L170.442412,16.3240252 C170.284044,17.4120385 169.555964,20.1424139 168.258173,24.513083 L168.258173,24.513083 Z M165.751028,33 L161,33 L167.639099,13 L173.360901,13 L180,33 L175.131738,33 L173.922386,28.9044369 L166.960381,28.9044369 L165.751028,33 Z" id="Fill-13" fill="#59F389"></path>
                <polygon id="Fill-15" fill="#59F389" points="196 16.6798014 191.255365 16.6798014 191.255365 33 186.772865 33 186.772865 16.6798014 182 16.6798014 182 13 196 13"></polygon>
                <mask id="mask-2" fill="white">
                    <use xlink:href="#path-1"></use>
                </mask>
                <g id="Clip-18"></g>
                <polygon id="Fill-17" fill="#59F389" mask="url(#mask-2)" points="199 33 203 33 203 13 199 13"></polygon>
                <path d="M213.053348,18.6492394 C212.203294,19.7190491 211.779277,21.1676237 211.779277,22.9989926 C211.779277,24.8303616 212.203294,26.2789362 213.053348,27.3487458 C213.903401,28.4185555 215.052285,28.9524529 216.5,28.9524529 C217.947715,28.9524529 219.096599,28.4185555 219.946652,27.3487458 C220.796706,26.2789362 221.220723,24.8303616 221.220723,22.9989926 C221.220723,21.1676237 220.796706,19.7190491 219.946652,18.6492394 C219.096599,17.5814445 217.947715,17.0455324 216.5,17.0455324 C215.052285,17.0455324 213.903401,17.5814445 213.053348,18.6492394 M226,22.9989926 C226,25.9868037 225.135813,28.3984084 223.407439,30.2378362 C221.679065,32.0792787 219.377258,33 216.5,33 C213.60255,33 211.296706,32.0833081 209.578427,30.2539539 C207.85813,28.4225849 207,26.004936 207,22.9989926 C207,20.0131963 207.864187,17.5995769 209.592561,15.7601491 C211.320935,13.9207213 213.622742,13 216.5,13 C219.39745,13 221.703294,13.9146771 223.421573,15.7460461 C225.139851,17.5754004 226,19.9930493 226,22.9989926" id="Fill-19" fill="#59F389" mask="url(#mask-2)"></path>
                <path d="M233.617361,33 L229,33 L229,13 L234.066765,13 L238.774007,21.2788581 C239.434526,22.4455937 240.009345,23.5378568 240.498463,24.5577162 C240.987581,25.5775755 241.303209,26.2933388 241.443256,26.7091436 L241.681544,27.3607778 C241.482971,25.8982209 241.382639,23.8709144 241.382639,21.2788581 L241.382639,13 L246,13 L246,33 L240.933235,33 L236.104758,24.7211419 C235.465142,23.6516343 234.900775,22.598676 234.411656,21.5601986 C233.922538,20.5217211 233.586008,19.7563095 233.406246,19.2598262 L233.167958,18.5192387 C233.466863,20.2983037 233.617361,22.3669839 233.617361,24.7211419 L233.617361,33 Z" id="Fill-20" fill="#59F389" mask="url(#mask-2)"></path>
                <polygon id="Fill-21" fill="#8300FF" mask="url(#mask-2)" points="94 56 86 56 86 42 89.057072 42 89.057072 53.1958457 94 53.1958457"></polygon>
                <path d="M101.97136,40.5478842 L99.372315,40.5478842 L101.21957,37 L104.355609,37 L101.97136,40.5478842 Z M105,55 L96,55 L96,41.4899777 L104.914081,41.4899777 L104.914081,43.9554566 L99.3293556,43.9554566 L99.3293556,47.0222717 L104.312649,47.0222717 L104.312649,49.467706 L99.3293556,49.467706 L99.3293556,52.5345212 L105,52.5345212 L105,55 Z" id="Fill-22" fill="#8300FF" mask="url(#mask-2)"></path>
                <path d="M111.141768,45.9552023 C110.561128,46.7037572 110.269817,47.7193642 110.269817,49 C110.269817,50.282659 110.561128,51.2962428 111.141768,52.0447977 C111.722409,52.7933526 112.509146,53.1676301 113.5,53.1676301 C114.490854,53.1676301 115.27561,52.7933526 115.858232,52.0447977 C116.438872,51.2962428 116.730183,50.282659 116.730183,49 C116.730183,47.7193642 116.438872,46.7037572 115.858232,45.9552023 C115.27561,45.2066474 114.490854,44.8323699 113.5,44.8323699 C112.509146,44.8323699 111.722409,45.2066474 111.141768,45.9552023 M120,49 C120,51.0919075 119.40747,52.7812139 118.226372,54.0679191 C117.043293,55.3566474 115.467835,56 113.5,56 C111.518293,56 109.938872,55.3586705 108.76372,54.0780347 C107.588567,52.7973988 107,51.1040462 107,49 C107,46.9101156 107.590549,45.2208092 108.773628,43.9320809 C109.954726,42.6433526 111.530183,42 113.5,42 C115.481707,42 117.059146,42.6413295 118.23628,43.9219653 C119.411433,45.2026012 120,46.8959538 120,49" id="Fill-23" fill="#8300FF" mask="url(#mask-2)"></path>
                <path d="M125.259259,56 L122,56 L122,42 L125.57672,42 L128.899471,47.7952522 C129.365079,48.6115727 129.771429,49.3780415 130.116402,50.0905045 C130.461376,50.8050445 130.683598,51.305638 130.783069,51.5964392 L130.952381,52.0534125 C130.812698,51.0293769 130.740741,49.6086053 130.740741,47.7952522 L130.740741,42 L134,42 L134,56 L130.42328,56 L127.015873,50.2047478 C126.565079,49.4569733 126.165079,48.7195846 125.820106,47.9925816 C125.475132,47.2655786 125.238095,46.7296736 125.111111,46.3827893 L124.941799,45.8635015 C125.153439,47.1097923 125.259259,48.5575668 125.259259,50.2047478 L125.259259,56 Z" id="Fill-24" fill="#8300FF" mask="url(#mask-2)"></path>
                <polygon id="Fill-25" fill="#8300FF" mask="url(#mask-2)" points="137 56 140 56 140 42 137 42"></polygon>
                <polygon id="Fill-26" fill="#8300FF" mask="url(#mask-2)" points="152 56 143 56 143 42 151.914081 42 151.914081 44.5548961 146.329356 44.5548961 146.329356 47.7329377 151.312649 47.7329377 151.312649 50.2670623 146.329356 50.2670623 146.329356 53.4451039 152 53.4451039"></polygon>
                <path d="M170,55.2301013 C169.143977,55.7426918 167.911472,56 166.298279,56 C164.222371,56 162.487189,55.3557164 161.092734,54.065123 C159.698279,52.7745297 159,51.1030391 159,49.0506512 C159,46.9698987 159.677247,45.2740955 161.029637,43.9652677 C162.382027,42.6544139 164.146654,42 166.319312,42 C167.917782,42 169.143977,42.2573082 170,42.7698987 L170,45.7684515 C168.948375,45.1464544 167.776864,44.8364689 166.487572,44.8364689 C165.351816,44.8364689 164.399044,45.2173661 163.627151,45.9811867 C162.857361,46.7450072 162.470363,47.766136 162.470363,49.0506512 C162.470363,50.3068017 162.857361,51.3036179 163.627151,52.0390738 C164.399044,52.7745297 165.393881,53.1432706 166.613767,53.1432706 C167.932505,53.1432706 169.059847,52.8191027 170,52.170767 L170,55.2301013 Z" id="Fill-27" fill="#8300FF" mask="url(#mask-2)"></path>
                <polygon id="Fill-28" fill="#8300FF" mask="url(#mask-2)" points="184 56 180.933453 56 180.933453 50.4124629 176.046763 50.4124629 176.046763 56 173 56 173 42 176.046763 42 176.046763 47.6913947 180.933453 47.6913947 180.933453 42 184 42"></polygon>
                <path d="M190.965839,50.0593472 L190.824534,50.5578635 L194.09472,50.5578635 L193.953416,50.0593472 C193.56382,48.7029674 193.242857,47.5459941 192.994565,46.5905045 C192.746273,45.6350148 192.594876,45.0181009 192.540373,44.7418398 L192.459627,44.3264095 C192.35264,45.0866469 191.854037,46.9976261 190.965839,50.0593472 L190.965839,50.0593472 Z M189.25,56 L186,56 L190.541925,42 L194.458075,42 L199,56 L195.669255,56 L194.841615,53.1335312 L190.07764,53.1335312 L189.25,56 Z" id="Fill-29" fill="#8300FF" mask="url(#mask-2)"></path>
                <path d="M205.430642,44.5548961 L204.188406,44.5548961 L204.188406,48.9376855 L205.244306,48.9376855 C206.927536,48.9376855 207.770186,48.1691395 207.770186,46.6320475 C207.770186,45.2465875 206.989648,44.5548961 205.430642,44.5548961 M205.803313,51.4718101 L204.188406,51.4718101 L204.188406,56 L201,56 L201,42 L205.803313,42 C207.349896,42 208.602484,42.4362018 209.561077,43.3086053 C210.519669,44.1810089 211,45.2881306 211,46.6320475 C211,48.1691395 210.498965,49.3593472 209.498965,50.2047478 C208.496894,51.0480712 207.267081,51.4718101 205.803313,51.4718101" id="Fill-30" fill="#8300FF" mask="url(#mask-2)"></path>
                <polygon id="Fill-31" fill="#8300FF" mask="url(#mask-2)" points="222 44.5756677 218.61157 44.5756677 218.61157 56 215.409091 56 215.409091 44.5756677 212 44.5756677 212 42 222 42"></polygon>
                <path d="M228.965839,50.0593472 L228.824534,50.5578635 L232.09472,50.5578635 L231.953416,50.0593472 C231.56382,48.7029674 231.242857,47.5459941 230.994565,46.5905045 C230.746273,45.6350148 230.594876,45.0181009 230.540373,44.7418398 L230.459627,44.3264095 C230.35264,45.0866469 229.854037,46.9976261 228.965839,50.0593472 L228.965839,50.0593472 Z M227.25,56 L224,56 L228.541925,42 L232.458075,42 L237,56 L233.669255,56 L232.841615,53.1335312 L228.07764,53.1335312 L227.25,56 Z" id="Fill-32" fill="#8300FF" mask="url(#mask-2)"></path>
                <polygon id="Fill-33" fill="#8300FF" mask="url(#mask-2)" points="247 56 239 56 239 42 242.057072 42 242.057072 53.1958457 247 53.1958457"></polygon>
            </g>
        </g>
    </g>
</svg>